# xmcd CD database file
#
# Track frame offsets:
#	150
#	4652
#	27541
#	53636
#	73760
#	109287
#	127940
#	152999
#	182447
#	197479
#	216916
#	234297
#	253891
#	261715
#	285485
#
# Disc length: 4147 seconds
#
# Revision: 1
# Processed by: cddbd v1.5.2PL0 Copyright (c) Steve Scherf et al.
# Submitted via: CDex 1.51
#
DISCID=da10310f
DTITLE=Michael W. Smith - A New Hallelujah
DYEAR=2008
DGENRE=Christian Rock
TTITLE0=Intro
TTITLE1=Prepare Ye Way
TTITLE2=A New Hallelujah (with the African Children's Choir)
TTITLE3=When I Think 
TTITLE4=Mighty To Save
TTITLE5=Shout Unto God
TTITLE6=Amazing Grace - My Chains Are Gone
TTITLE7=Deep In Love With You
TTITLE8=Healing Rain - Let It Rain
TTITLE9=Majesty
TTITLE10=I Surrender All (with special guest Coalo Zamorano)
TTITLE11=Grace
TTITLE12=Special Message
TTITLE13=Help Is On The Way (with special guest Israel Houghton)
TTITLE14=The River Is Rising
EXTD=www.gerth.de - Art.-Nr. 3544169 YEAR: 2008
EXTT0=
EXTT1=
EXTT2=
EXTT3=
EXTT4=
EXTT5=
EXTT6=
EXTT7=
EXTT8=
EXTT9=
EXTT10=
EXTT11=
EXTT12=
EXTT13=
EXTT14=
PLAYORDER=
